<?xml version="1.0" encoding="UTF-8"?>
<svg width="33px" height="36px" viewBox="0 0 33 36" version="1.1" xmlns="http://www.w3.org/2000/svg" xmlns:xlink="http://www.w3.org/1999/xlink">
    <!-- Generator: Sketch 48.2 (47327) - http://www.bohemiancoding.com/sketch -->
    <title>Artboard 3</title>
    <desc>Created with Sketch.</desc>
    <defs></defs>
    <g id="Page-1" stroke="none" stroke-width="1" fill="none" fill-rule="evenodd">
        <g id="Artboard-3" fill="#1A1E44" fill-rule="nonzero">
            <g id="cloud" transform="translate(2.000000, 4.000000)">
                <path d="M20,0.998 C19.9261405,0.999067248 19.8534348,1.01648458 19.787109,1.049 C17.757805,1.116 15.898589,2.0775 14.623047,3.6506 C13.963332,3.2893 13.256691,2.9987 12.5,2.9982 C10.071829,2.9982 8.1103568,4.9448 8.0292969,7.3537 C7.6864381,7.2203 7.37485,6.9989 7.0019531,6.9982 C7.0013031,6.99819873 7.0006531,6.99819873 7.0000031,6.9982 C5.7233095,6.9983 4.6959399,7.8694 4.2734406,9.0432 C1.9002172,9.1673 0,11.0939 0,13.498 C0,15.9823 2.0156486,17.998 4.5,17.998 L24.5,17.998 C26.984351,17.998 29,15.9823 29,13.498 C29,11.8551 28.056202,10.4975 26.742188,9.7148 C26.885886,9.152 26.999315,8.5797 27,7.998 C27.000007,4.2023 23.953016,1.1375 20.181641,1.0352 C20.1239424,1.01158531 20.0623366,0.998968468 20,0.998 Z M20,1.998 C23.319633,1.998 26.000006,4.6783 26,7.998 C25.99911,8.5907 25.90996,9.1813 25.736328,9.748 C25.6639479,9.98504605 25.7761296,10.2393432 26,10.3457 C27.182653,10.9075 28,12.0939 28,13.498 C28,15.4456 26.447649,16.998 24.5,16.998 L4.5,16.998 C2.5523514,16.998 1,15.4456 1,13.498 C1,11.5503 2.5523514,9.998 4.5,9.998 L4.550781,9.998 C4.7885885,9.9981115 4.99357757,9.83072805 5.0410154,9.5977 C5.2316792,8.6636 6.0466803,7.9981 6.9999998,7.998 C7.4473365,7.9988 7.880851,8.1492 8.2324217,8.4258 C8.39323693,8.551345 8.61419527,8.56660468 8.79074208,8.46435836 C8.96728888,8.36211204 9.06401695,8.16286564 9.0351558,7.9609 C9.0130058,7.8077 9.0016958,7.6527 8.9999958,7.498 C9.0031958,5.5619 10.5630768,4.0039 12.4999958,4.0039 C13.1996138,4.0044 13.8819108,4.2129 14.4609338,4.6055 C14.6841594,4.75734207 14.9876095,4.70457939 15.1464798,4.4863 C16.2735208,2.9288 18.0774718,2.0063 19.9999958,2.0039 L19.9999958,1.9939 L20,1.998 Z M12.492188,18.4824 C12.3595809,18.484469 12.2332271,18.5391318 12.1409237,18.6343631 C12.0486203,18.7295944 11.9979284,18.857593 12,18.9902 L12,25.9902 C11.9974499,26.170518 12.0921876,26.3382407 12.2479364,26.4291439 C12.4036852,26.520047 12.5963148,26.520047 12.7520636,26.4291439 C12.9078124,26.3382407 13.0025501,26.170518 13,25.9902 L13,18.9902 C13.002114,18.854884 12.9492913,18.7244893 12.8535956,18.6287959 C12.7578999,18.5331025 12.627504,18.4802828 12.492188,18.4824 Z M5.4921875,18.9902 C5.35958051,18.9922691 5.23322686,19.046932 5.14092353,19.1421633 C5.04862021,19.2373945 4.99792841,19.3653931 5,19.498 L5,26.498 C4.99744986,26.678318 5.09218765,26.8460407 5.24793642,26.9369439 C5.4036852,27.027847 5.5963148,27.027847 5.75206358,26.9369439 C5.90781235,26.8460407 6.00255014,26.678318 6,26.498 L6,19.498 C6.00211401,19.3626839 5.9492912,19.2322891 5.85359541,19.1365957 C5.75789961,19.0409023 5.62750356,18.9880827 5.4921875,18.9902 Z M19.492188,18.9902 C19.3595809,18.992269 19.2332271,19.0469318 19.1409237,19.1421631 C19.0486203,19.2373944 18.9979284,19.365393 19,19.498 L19,26.498 C18.9974499,26.678318 19.0921876,26.8460407 19.2479364,26.9369439 C19.4036852,27.027847 19.5963148,27.027847 19.7520636,26.9369439 C19.9078124,26.8460407 20.0025501,26.678318 20,26.498 L20,19.498 C20.002114,19.362684 19.9492913,19.2322893 19.8535956,19.1365959 C19.7578999,19.0409025 19.627504,18.9880828 19.492188,18.9902 Z M8.992188,19.3223 C8.71683912,19.326611 8.49679954,19.552736 8.5,19.8281 L8.5,22.9902 C8.49745604,23.1705139 8.59219521,23.3382302 8.74794144,23.4291295 C8.90368767,23.5200288 9.09631233,23.5200288 9.25205856,23.4291295 C9.40780479,23.3382302 9.50254396,23.1705139 9.5,22.9902 L9.5,19.8281 C9.50156859,19.6931284 9.44850505,19.5632554 9.35287002,19.4679992 C9.25723499,19.3727431 9.12715229,19.3201956 8.992188,19.3223 Z M22.992188,19.3223 C22.7168391,19.326611 22.4967995,19.552736 22.5,19.8281 L22.5,22.9902 C22.497456,23.1705139 22.5921952,23.3382302 22.7479414,23.4291295 C22.9036877,23.5200288 23.0963123,23.5200288 23.2520586,23.4291295 C23.4078048,23.3382302 23.502544,23.1705139 23.5,22.9902 L23.5,19.8281 C23.5015686,19.6931284 23.4485051,19.5632554 23.35287,19.4679992 C23.257235,19.3727431 23.1271523,19.3201956 22.992188,19.3223 Z M15.992188,19.4434 C15.7168391,19.447711 15.4967995,19.673836 15.5,19.9492 L15.5,23.8691 C15.497456,24.0494139 15.5921952,24.2171302 15.7479414,24.3080295 C15.9036877,24.3989288 16.0963123,24.3989288 16.2520586,24.3080295 C16.4078048,24.2171302 16.502544,24.0494139 16.5,23.8691 L16.5,19.9492 C16.5015686,19.8142284 16.4485051,19.6843554 16.35287,19.5890992 C16.257235,19.4938431 16.1271523,19.4412956 15.992188,19.4434 Z" id="Shape"></path>
            </g>
        </g>
    </g>
</svg>