<svg xmlns="http://www.w3.org/2000/svg" viewBox="0 0 32 32" x="0px" y="0px"><defs><style>
      .cls-1 {
        fill-rule: evenodd;
      }
    </style></defs><path data-name="1" class="cls-1" d="M3,10H16V31H3V10Zm1,1H15V30H4V11Zm1,1H9v4H5V12Zm1,1H8v2H6V13ZM27,30V4H11V9H10V4H9V1H29V4H28V31H17V30H27ZM10,2H28V3H10V2Zm0,10h4v4H10V12Zm1,1h2v2H11V13ZM5,17H9v4H5V17Zm1,1H8v2H6V18Zm4-1h4v4H10V17Zm1,1h2v2H11V18ZM5,22H9v4H5V22Zm1,1H8v2H6V23Zm4-1h4v4H10V22Zm1,1h2v2H11V23ZM12,5h4V9H12V5Zm1,1h2V8H13V6Zm4-1h4V9H17V5Zm1,1h2V8H18V6Zm4-1h4V9H22V5Zm1,1h2V8H23V6Zm-6,4h4v4H17V10Zm1,1h2v2H18V11Zm4-1h4v4H22V10Zm1,1h2v2H23V11Zm-6,4h4v4H17V15Zm1,1h2v2H18V16Zm4-1h4v4H22V15Zm1,1h2v2H23V16Zm-6,4h4v4H17V20Zm1,1h2v2H18V21Zm4-1h4v4H22V20Zm1,1h2v2H23V21Z"></path></svg>