<?xml version="1.0" encoding="UTF-8"?>
<svg width="1631px" height="1245px" viewBox="0 0 1631 1245" version="1.1" xmlns="http://www.w3.org/2000/svg" xmlns:xlink="http://www.w3.org/1999/xlink" style="background: #070D44;">
    <!-- Generator: Sketch 48.2 (47327) - http://www.bohemiancoding.com/sketch -->
    <title>Artboard 2</title>
    <desc>Created with Sketch.</desc>
    <defs></defs>
    <g id="Page-1" stroke="none" stroke-width="1" fill="none" fill-rule="evenodd">
        <g id="Artboard-2" fill="#F1F1F1" fill-rule="nonzero">
            <g id="noun_158215-(1)" opacity="0.0399999991" transform="translate(192.000000, -199.000000)">
                <path d="M274,1570 L274,1256.54541 L274.969805,1255.99974 L545,1100 L545,1413.49501 L544.00999,1414.04068 L274,1570 Z M277.818609,1258.74828 L277.818609,1563.31054 L541.120778,1411.27193 L541.120778,1106.66925 L277.818609,1258.74828 Z" id="Shape"></path>
                <path d="M817.530337,314 L545,156.989908 L547.892159,155.334833 L817.429213,0 L818.379783,0.565147522 L1090,157.070643 L1087.04717,158.725718 C1084.57973,160.118403 990.068839,214.594588 914.144617,258.353153 C863.07678,287.781192 820.159572,312.52658 818.501132,313.47522 L817.530337,314 Z M552.685457,157.010092 L817.530337,309.599923 C824.325899,305.684258 864.775671,282.392106 912.243478,255.043003 C981.250789,215.280838 1065.58856,166.678151 1082.25387,157.070643 L817.408988,4.44044482 L552.685457,157.010092 Z" id="Shape"></path>
                <path d="M818,627 L818,313.498259 L818.970022,312.952616 L1089,157 L1089,470.481532 L1088.05019,471.027175 L818,627 Z M821.880089,315.701036 L821.880089,620.351249 L1085.18054,468.298964 L1085.18054,163.648751 L821.880089,315.701036 Z" id="Shape"></path>
                <path d="M816,628 L813.072998,626.319881 L545,471.08097 L545,157 L547.906816,158.680119 L816,313.878546 L816,628 Z M548.875754,468.894791 L812.164618,621.360495 L812.164618,316.105209 L548.875754,163.67999 L548.875754,468.894791 Z" id="Shape"></path>
                <path d="M545.601016,784 L544.651468,783.435002 L275,627.919286 L277.909254,626.264649 L545.358578,472 L546.328329,472.564998 L816,628.080714 L813.110949,629.735351 L545.601016,784 Z M282.677198,627.899107 L545.601016,779.540551 L808.302599,628.080714 L545.338375,476.459449 L282.677198,627.899107 Z" id="Shape"></path>
                <path d="M1089.59091,784 L1088.60099,783.434965 L819,627.909191 L821.909145,626.234267 L1089.38889,472 L1090.3586,472.565035 L1360,628.05045 L1357.09085,629.705194 L1089.59091,784 Z M826.676911,627.889011 L1089.59091,779.540263 L1352.30289,628.070629 L1089.38889,476.459737 L826.676911,627.889011 Z" id="Shape"></path>
                <path d="M1090,1099 L1090,785.457841 L1090.94981,784.932407 L1361,629 L1361,942.461323 L1360.05019,942.986757 L1090,1099 Z M1093.83967,787.640409 L1093.83967,1092.27041 L1357.16033,940.238337 L1357.16033,635.648751 L1093.83967,787.640409 Z" id="Shape"></path>
                <path d="M1089,1100 L1086.09297,1098.3402 L818,943.128196 L818,629 L820.907032,630.680046 L1089,785.871804 L1089,1100 Z M821.876043,940.901629 L1085.18452,1093.34054 L1085.18452,788.057888 L821.876043,635.659461 L821.876043,940.901629 Z" id="Shape"></path>
                <path d="M545,1099 L545,785.511718 L545.969733,784.98624 L816,629 L816,942.528704 L814.989861,943.054182 L545,1099 Z M548.838527,787.694474 L548.838527,1092.35068 L812.121068,940.305526 L812.121068,635.649323 L548.838527,787.694474 Z" id="Shape"></path>
                <path d="M544.979814,1100 L542.072998,1098.34027 L274,943.134938 L274,629 L276.906816,630.679974 L545,785.905544 L544.979814,1100 Z M277.815196,940.908466 L541.124246,1093.34083 L541.124246,788.071294 L277.815196,635.659175 L277.815196,940.908466 Z" id="Shape"></path>
                <path d="M272.5,1255 L2,1099 L4.9096885,1097.34472 L272.540412,943 L543,1099.02019 L540.090311,1100.67547 L272.5,1255 Z M9.63793232,1099 L272.459588,1250.59938 L535.261037,1099 L272.459588,947.400621 L9.63793232,1099 Z" id="Shape"></path>
                <path d="M816.5,1255 L546,1099.03028 L548.909471,1097.37511 L816.520205,943 L1087,1099.03028 L1084.09053,1100.68545 L816.5,1255 Z M553.697976,1099.05046 L816.5,1250.59966 L1079.26161,1099.05046 L816.5,947.420521 L553.697976,1099.05046 Z" id="Shape"></path>
                <path d="M1361.46969,1255 L1360.49983,1254.45493 L1091,1099.03028 L1093.90958,1097.37489 L1361.46969,943 L1362.45976,943.524879 L1632,1099.03028 L1629.09042,1100.68567 L1361.46969,1255 Z M1098.69826,1099.03028 L1361.46969,1250.59909 L1624.30174,1099.03028 L1361.46969,947.380718 L1098.69826,1099.03028 Z" id="Shape"></path>
                <path d="M1361,1571 L1361,1255.37026 L1361.9515,1254.82461 L1634,1098 L1634,1413.56911 L1633.0485,1414.05413 L1361,1571 Z M1364.8465,1257.63371 L1364.8465,1564.33091 L1630.13326,1411.40671 L1630.13326,1104.66909 L1364.8465,1257.63371 Z" id="Shape"></path>
                <path d="M1361,1571 L1358.11316,1569.34041 L1090,1414.10794 L1090,1100 L1092.90703,1101.70007 L1361,1256.93254 L1361,1571 Z M1093.87604,1411.9019 L1357.18452,1564.32116 L1357.18452,1259.15882 L1093.87604,1106.69908 L1093.87604,1411.9019 Z" id="Shape"></path>
                <path d="M818,1570 L818,1256.53195 L818.970022,1255.98633 L1089,1100 L1089,1413.46805 L1088.05019,1414.01367 L818,1570 Z M821.880089,1258.73463 L821.880089,1563.2707 L1085.18054,1411.24516 L1085.18054,1106.66867 L821.880089,1258.73463 Z" id="Shape"></path>
                <path d="M816,1571 L813.072998,1569.3402 L545,1414.08771 L545,1100 L547.906816,1101.70029 L816,1256.91229 L816,1571 Z M548.875754,1411.88139 L812.164618,1564.3203 L812.164618,1259.11861 L548.875754,1106.6797 L548.875754,1411.88139 Z" id="Shape"></path>
                <path d="M272.979779,1571 L270.067995,1569.34305 L0,1413.52867 L0,1098 L2.89156359,1099.65695 L272.919117,1255.43092 L273,1256.60291 L272.979779,1571 Z M3.84193763,1411.30592 L269.117621,1564.35197 L269.117621,1257.67387 L3.84193763,1104.62782 L3.84193763,1411.30592 Z" id="Shape"></path>
            </g>
            <g id="noun_158215-(1)" opacity="0.0299999993" transform="translate(1506.000000, 459.500000) scale(1, -1) translate(-1506.000000, -459.500000) translate(689.000000, -326.000000)">
                <path d="M274,1570 L274,1256.54541 L274.969805,1255.99974 L545,1100 L545,1413.49501 L544.00999,1414.04068 L274,1570 Z M277.818609,1258.74828 L277.818609,1563.31054 L541.120778,1411.27193 L541.120778,1106.66925 L277.818609,1258.74828 Z" id="Shape"></path>
                <path d="M817.530337,314 L545,156.989908 L547.892159,155.334833 L817.429213,0 L818.379783,0.565147522 L1090,157.070643 L1087.04717,158.725718 C1084.57973,160.118403 990.068839,214.594588 914.144617,258.353153 C863.07678,287.781192 820.159572,312.52658 818.501132,313.47522 L817.530337,314 Z M552.685457,157.010092 L817.530337,309.599923 C824.325899,305.684258 864.775671,282.392106 912.243478,255.043003 C981.250789,215.280838 1065.58856,166.678151 1082.25387,157.070643 L817.408988,4.44044482 L552.685457,157.010092 Z" id="Shape"></path>
                <path d="M818,627 L818,313.498259 L818.970022,312.952616 L1089,157 L1089,470.481532 L1088.05019,471.027175 L818,627 Z M821.880089,315.701036 L821.880089,620.351249 L1085.18054,468.298964 L1085.18054,163.648751 L821.880089,315.701036 Z" id="Shape"></path>
                <path d="M816,628 L813.072998,626.319881 L545,471.08097 L545,157 L547.906816,158.680119 L816,313.878546 L816,628 Z M548.875754,468.894791 L812.164618,621.360495 L812.164618,316.105209 L548.875754,163.67999 L548.875754,468.894791 Z" id="Shape"></path>
                <path d="M545.601016,784 L544.651468,783.435002 L275,627.919286 L277.909254,626.264649 L545.358578,472 L546.328329,472.564998 L816,628.080714 L813.110949,629.735351 L545.601016,784 Z M282.677198,627.899107 L545.601016,779.540551 L808.302599,628.080714 L545.338375,476.459449 L282.677198,627.899107 Z" id="Shape"></path>
                <path d="M1089.59091,784 L1088.60099,783.434965 L819,627.909191 L821.909145,626.234267 L1089.38889,472 L1090.3586,472.565035 L1360,628.05045 L1357.09085,629.705194 L1089.59091,784 Z M826.676911,627.889011 L1089.59091,779.540263 L1352.30289,628.070629 L1089.38889,476.459737 L826.676911,627.889011 Z" id="Shape"></path>
                <path d="M1089,1100 L1086.09297,1098.3402 L818,943.128196 L818,629 L820.907032,630.680046 L1089,785.871804 L1089,1100 Z M821.876043,940.901629 L1085.18452,1093.34054 L1085.18452,788.057888 L821.876043,635.659461 L821.876043,940.901629 Z" id="Shape"></path>
                <path d="M545,1099 L545,785.511718 L545.969733,784.98624 L816,629 L816,942.528704 L814.989861,943.054182 L545,1099 Z M548.838527,787.694474 L548.838527,1092.35068 L812.121068,940.305526 L812.121068,635.649323 L548.838527,787.694474 Z" id="Shape"></path>
                <path d="M544.979814,1100 L542.072998,1098.34027 L274,943.134938 L274,629 L276.906816,630.679974 L545,785.905544 L544.979814,1100 Z M277.815196,940.908466 L541.124246,1093.34083 L541.124246,788.071294 L277.815196,635.659175 L277.815196,940.908466 Z" id="Shape"></path>
                <path d="M272.5,1255 L2,1099 L4.9096885,1097.34472 L272.540412,943 L543,1099.02019 L540.090311,1100.67547 L272.5,1255 Z M9.63793232,1099 L272.459588,1250.59938 L535.261037,1099 L272.459588,947.400621 L9.63793232,1099 Z" id="Shape"></path>
                <path d="M816.5,1255 L546,1099.03028 L548.909471,1097.37511 L816.520205,943 L1087,1099.03028 L1084.09053,1100.68545 L816.5,1255 Z M553.697976,1099.05046 L816.5,1250.59966 L1079.26161,1099.05046 L816.5,947.420521 L553.697976,1099.05046 Z" id="Shape"></path>
                <path d="M818,1570 L818,1256.53195 L818.970022,1255.98633 L1089,1100 L1089,1413.46805 L1088.05019,1414.01367 L818,1570 Z M821.880089,1258.73463 L821.880089,1563.2707 L1085.18054,1411.24516 L1085.18054,1106.66867 L821.880089,1258.73463 Z" id="Shape"></path>
                <path d="M816,1571 L813.072998,1569.3402 L545,1414.08771 L545,1100 L547.906816,1101.70029 L816,1256.91229 L816,1571 Z M548.875754,1411.88139 L812.164618,1564.3203 L812.164618,1259.11861 L548.875754,1106.6797 L548.875754,1411.88139 Z" id="Shape"></path>
                <path d="M272.979779,1571 L270.067995,1569.34305 L0,1413.52867 L0,1098 L2.89156359,1099.65695 L272.919117,1255.43092 L273,1256.60291 L272.979779,1571 Z M3.84193763,1411.30592 L269.117621,1564.35197 L269.117621,1257.67387 L3.84193763,1104.62782 L3.84193763,1411.30592 Z" id="Shape"></path>
            </g>
            <g id="noun_158215-(1)" opacity="0.0199999996" transform="translate(605.000000, 911.500000) scale(1, -1) translate(-605.000000, -911.500000) translate(-212.000000, 126.000000)">
                <path d="M274,1570 L274,1256.54541 L274.969805,1255.99974 L545,1100 L545,1413.49501 L544.00999,1414.04068 L274,1570 Z M277.818609,1258.74828 L277.818609,1563.31054 L541.120778,1411.27193 L541.120778,1106.66925 L277.818609,1258.74828 Z" id="Shape"></path>
                <path d="M818,627 L818,313.498259 L818.970022,312.952616 L1089,157 L1089,470.481532 L1088.05019,471.027175 L818,627 Z M821.880089,315.701036 L821.880089,620.351249 L1085.18054,468.298964 L1085.18054,163.648751 L821.880089,315.701036 Z" id="Shape"></path>
                <path d="M816,628 L813.072998,626.319881 L545,471.08097 L545,157 L547.906816,158.680119 L816,313.878546 L816,628 Z M548.875754,468.894791 L812.164618,621.360495 L812.164618,316.105209 L548.875754,163.67999 L548.875754,468.894791 Z" id="Shape"></path>
                <path d="M545.601016,784 L544.651468,783.435002 L275,627.919286 L277.909254,626.264649 L545.358578,472 L546.328329,472.564998 L816,628.080714 L813.110949,629.735351 L545.601016,784 Z M282.677198,627.899107 L545.601016,779.540551 L808.302599,628.080714 L545.338375,476.459449 L282.677198,627.899107 Z" id="Shape"></path>
                <path d="M1089.59091,784 L1088.60099,783.434965 L819,627.909191 L821.909145,626.234267 L1089.38889,472 L1090.3586,472.565035 L1360,628.05045 L1357.09085,629.705194 L1089.59091,784 Z M826.676911,627.889011 L1089.59091,779.540263 L1352.30289,628.070629 L1089.38889,476.459737 L826.676911,627.889011 Z" id="Shape"></path>
                <path d="M1090,1099 L1090,785.457841 L1090.94981,784.932407 L1361,629 L1361,942.461323 L1360.05019,942.986757 L1090,1099 Z M1093.83967,787.640409 L1093.83967,1092.27041 L1357.16033,940.238337 L1357.16033,635.648751 L1093.83967,787.640409 Z" id="Shape"></path>
                <path d="M1089,1100 L1086.09297,1098.3402 L818,943.128196 L818,629 L820.907032,630.680046 L1089,785.871804 L1089,1100 Z M821.876043,940.901629 L1085.18452,1093.34054 L1085.18452,788.057888 L821.876043,635.659461 L821.876043,940.901629 Z" id="Shape"></path>
                <path d="M545,1099 L545,785.511718 L545.969733,784.98624 L816,629 L816,942.528704 L814.989861,943.054182 L545,1099 Z M548.838527,787.694474 L548.838527,1092.35068 L812.121068,940.305526 L812.121068,635.649323 L548.838527,787.694474 Z" id="Shape"></path>
                <path d="M544.979814,1100 L542.072998,1098.34027 L274,943.134938 L274,629 L276.906816,630.679974 L545,785.905544 L544.979814,1100 Z M277.815196,940.908466 L541.124246,1093.34083 L541.124246,788.071294 L277.815196,635.659175 L277.815196,940.908466 Z" id="Shape"></path>
                <path d="M272.5,1255 L2,1099 L4.9096885,1097.34472 L272.540412,943 L543,1099.02019 L540.090311,1100.67547 L272.5,1255 Z M9.63793232,1099 L272.459588,1250.59938 L535.261037,1099 L272.459588,947.400621 L9.63793232,1099 Z" id="Shape"></path>
                <path d="M816.5,1255 L546,1099.03028 L548.909471,1097.37511 L816.520205,943 L1087,1099.03028 L1084.09053,1100.68545 L816.5,1255 Z M553.697976,1099.05046 L816.5,1250.59966 L1079.26161,1099.05046 L816.5,947.420521 L553.697976,1099.05046 Z" id="Shape"></path>
                <path d="M1361.46969,1255 L1360.49983,1254.45493 L1091,1099.03028 L1093.90958,1097.37489 L1361.46969,943 L1362.45976,943.524879 L1632,1099.03028 L1629.09042,1100.68567 L1361.46969,1255 Z M1098.69826,1099.03028 L1361.46969,1250.59909 L1624.30174,1099.03028 L1361.46969,947.380718 L1098.69826,1099.03028 Z" id="Shape"></path>
                <path d="M1361,1571 L1361,1255.37026 L1361.9515,1254.82461 L1634,1098 L1634,1413.56911 L1633.0485,1414.05413 L1361,1571 Z M1364.8465,1257.63371 L1364.8465,1564.33091 L1630.13326,1411.40671 L1630.13326,1104.66909 L1364.8465,1257.63371 Z" id="Shape"></path>
                <path d="M1361,1571 L1358.11316,1569.34041 L1090,1414.10794 L1090,1100 L1092.90703,1101.70007 L1361,1256.93254 L1361,1571 Z M1093.87604,1411.9019 L1357.18452,1564.32116 L1357.18452,1259.15882 L1093.87604,1106.69908 L1093.87604,1411.9019 Z" id="Shape"></path>
                <path d="M818,1570 L818,1256.53195 L818.970022,1255.98633 L1089,1100 L1089,1413.46805 L1088.05019,1414.01367 L818,1570 Z M821.880089,1258.73463 L821.880089,1563.2707 L1085.18054,1411.24516 L1085.18054,1106.66867 L821.880089,1258.73463 Z" id="Shape"></path>
                <path d="M816,1571 L813.072998,1569.3402 L545,1414.08771 L545,1100 L547.906816,1101.70029 L816,1256.91229 L816,1571 Z M548.875754,1411.88139 L812.164618,1564.3203 L812.164618,1259.11861 L548.875754,1106.6797 L548.875754,1411.88139 Z" id="Shape"></path>
                <path d="M272.979779,1571 L270.067995,1569.34305 L0,1413.52867 L0,1098 L2.89156359,1099.65695 L272.919117,1255.43092 L273,1256.60291 L272.979779,1571 Z M3.84193763,1411.30592 L269.117621,1564.35197 L269.117621,1257.67387 L3.84193763,1104.62782 L3.84193763,1411.30592 Z" id="Shape"></path>
            </g>
        </g>
    </g>
</svg>