<?xml version="1.0" encoding="UTF-8"?>
<svg width="186px" height="143px" viewBox="0 0 186 143" version="1.1" xmlns="http://www.w3.org/2000/svg" xmlns:xlink="http://www.w3.org/1999/xlink" style="background: #1A1E44;">
    <!-- Generator: Sketch 48.2 (47327) - http://www.bohemiancoding.com/sketch -->
    <title>Artboard 2</title>
    <desc>Created with Sketch.</desc>
    <defs></defs>
    <g id="Page-1" stroke="none" stroke-width="1" fill="none" fill-rule="evenodd">
        <g id="Artboard-2" fill="#FFFFFF" fill-rule="nonzero">
            <g id="noun_158215" transform="translate(16.000000, -63.000000)">
                <path d="M45,269 L45,214.312178 L45.1610378,214.216976 L90,187 L90,241.694874 L89.8356072,241.790076 L45,269 Z M45.6340863,214.696508 L45.6340863,267.832903 L89.3558488,241.307018 L89.3558488,188.163571 L45.6340863,214.696508 Z" id="Shape" opacity="0.024852808"></path>
                <path d="M140,109 L140,54.3039515 L140.161074,54.2087544 L185,27 L185,81.6925227 L184.842282,81.7877198 L140,109 Z M140.644295,54.6882659 L140.644295,107.840005 L184.365772,81.3117341 L184.365772,28.1599948 L140.644295,54.6882659 Z" id="Shape" opacity="0.024852808"></path>
                <path d="M140,109 L139.481564,108.707495 L92,81.6807633 L92,27 L92.5148603,27.2925047 L140,54.3121884 L140,109 Z M92.6864804,81.3001547 L139.32067,107.844078 L139.32067,54.6998453 L92.6864804,28.1629706 L92.6864804,81.3001547 Z" id="Shape" opacity="0.024852808"></path>
                <path d="M91.0171783,134 L90.8557024,133.904023 L45,107.486289 L45.4947345,107.205213 L90.9759504,81 L91.1408619,81.0959772 L137,107.513711 L136.508701,107.794787 L91.0171783,134 Z M46.3055493,107.482861 L91.0171783,133.242465 L135.691015,107.513711 L90.9725148,81.7575346 L46.3055493,107.482861 Z" id="Shape" opacity="0.024852808"></path>
                <path d="M186.01546,134 L185.847119,133.904017 L140,107.484574 L140.494716,107.200052 L185.981105,81 L186.14601,81.0959834 L232,107.50857 L231.505284,107.789664 L186.01546,134 Z M141.305501,107.481146 L186.01546,133.242416 L230.691064,107.511998 L185.981105,81.7575836 L141.305501,107.481146 Z" id="Shape" opacity="0.024852808"></path>
                <path d="M185,191 L184.517282,190.711032 L140,163.688985 L140,109 L140.482718,109.292492 L185,136.311015 L185,191 Z M140.643623,163.301345 L184.366433,189.840603 L184.366433,136.691607 L140.643623,110.159397 L140.643623,163.301345 Z" id="Shape" opacity="0.024852808"></path>
                <path d="M92,191 L92,136.3063 L92.1717608,136.214621 L140,109 L140,163.700753 L139.821082,163.792432 L92,191 Z M92.6798867,136.687121 L92.6798867,189.839905 L139.312957,163.312879 L139.312957,110.160095 L92.6798867,136.687121 Z" id="Shape" opacity="0.024852808"></path>
                <path d="M89.996648,191 L89.5139665,190.711044 L45,163.690159 L45,109 L45.4826816,109.29248 L90,136.316889 L89.996648,191 Z M45.6335196,163.302535 L89.3564246,189.840653 L89.3564246,136.693941 L45.6335196,110.159347 L45.6335196,163.302535 Z" id="Shape" opacity="0.024852808"></path>
                <path d="M46,213 L0,186.5 L0.494808396,186.218815 L46.0068723,160 L92,186.503429 L91.5051916,186.784614 L46,213 Z M1.29887204,186.5 L45.9931277,212.252459 L90.6839471,186.5 L45.9931277,160.747541 L1.29887204,186.5 Z" id="Shape" opacity="0.024852808"></path>
                <path d="M138,213 L92,186.505143 L92.4947714,186.223976 L138.003436,160 L184,186.505143 L183.505229,186.78631 L138,213 Z M93.3090828,186.508572 L138,212.252507 L182.684045,186.508572 L138,160.750922 L93.3090828,186.508572 Z" id="Shape" opacity="0.024852808"></path>
                <path d="M140,269 L140,214.309829 L140.161074,214.214636 L185,187 L185,241.690171 L184.842282,241.785364 L140,269 Z M140.644295,214.694127 L140.644295,267.825952 L184.365772,241.302348 L184.365772,188.163471 L140.644295,214.694127 Z" id="Shape" opacity="0.024852808"></path>
                <path d="M140,269 L139.481564,268.711032 L92,241.681937 L92,187 L92.5148603,187.296016 L140,214.318063 L140,269 Z M92.6864804,241.297821 L139.32067,267.837079 L139.32067,214.702179 L92.6864804,188.162921 L92.6864804,241.297821 Z" id="Shape" opacity="0.024852808"></path>
                <path d="M44.9966669,269 L44.5167025,268.712748 L0,241.70053 L0,187 L0.476631361,187.287252 L44.9866677,214.292464 L45,214.495643 L44.9966669,269 Z M0.633286423,241.315191 L44.3600474,267.847488 L44.3600474,214.681306 L0.633286423,188.149009 L0.633286423,241.315191 Z" id="Shape" opacity="0.0299999993"></path>
            </g>
        </g>
    </g>
</svg>