<svg xmlns:dc="http://purl.org/dc/elements/1.1/" xmlns:cc="http://creativecommons.org/ns#" xmlns:rdf="http://www.w3.org/1999/02/22-rdf-syntax-ns#" xmlns:svg="http://www.w3.org/2000/svg" xmlns="http://www.w3.org/2000/svg" xmlns:sodipodi="http://sodipodi.sourceforge.net/DTD/sodipodi-0.dtd" xmlns:inkscape="http://www.inkscape.org/namespaces/inkscape" version="1.1" x="0px" y="0px" viewBox="0 0 128 128" enable-background="new 0 0 128 128" xml:space="preserve"><path style="" d="M 109.02344 30.660156 C 108.95 30.661719 108.87578 30.674219 108.80078 30.699219 L 18.800781 61.199219 C 18.500781 61.299219 18.300781 61.600391 18.300781 61.900391 C 18.300781 62.200391 18.500781 62.499609 18.800781 62.599609 L 42 70.099609 L 46.400391 96.800781 C 46.400391 97.100781 46.699609 97.400391 47.099609 97.400391 C 47.399609 97.400391 47.700781 97.200391 47.800781 96.900391 L 47.833984 96.783203 L 66.740234 78.640625 L 82.300781 83.900391 C 82.600781 84.000391 82.999219 83.8 83.199219 83.5 L 109.69922 31.699219 C 109.79922 31.499219 109.79961 31.100391 109.59961 30.900391 C 109.44961 30.750391 109.24375 30.655469 109.02344 30.660156 z M 105.10156 33.509766 L 42.806641 68.769531 L 21.400391 61.800781 L 105.10156 33.509766 z M 106.72266 34.222656 L 82.199219 82.300781 L 54.669922 73.025391 L 106.72266 34.222656 z M 101.90039 36.5 L 53.300781 72.800781 C 53.13806 72.909262 53.068564 73.046234 53.066406 73.181641 C 53.044957 73.221925 53.020578 73.259625 53 73.300781 L 47.300781 93.300781 L 43.433594 69.599609 L 101.90039 36.5 z M 54.199219 74.400391 L 65.683594 78.283203 L 48.371094 94.896484 L 54.199219 74.400391 z " fill="#000000" stroke="none"></path><path stroke-miterlimit="10" d="M 82.6,83.2" style="" fill="#000000" stroke="none"></path><path stroke-miterlimit="10" d="M 19,61.8" style="" fill="#000000" stroke="none"></path><path stroke-miterlimit="10" d="M 109,31.3" style="" fill="#000000" stroke="none"></path></svg>