<svg xmlns="http://www.w3.org/2000/svg" xmlns:xlink="http://www.w3.org/1999/xlink" version="1.1" x="0px" y="0px" viewBox="0 0 100 100" style="enable-background:new 0 0 100 100;" xml:space="preserve"><path d="M85.4,31.6l-11.8-8.4H51.8V20H62c2.5,0,4.6-2.1,4.6-4.6c0-2.5-2.1-4.6-4.6-4.6H38.6c-2.5,0-4.6,2.1-4.6,4.6  c0,2.5,2.1,4.6,4.6,4.6h10.2v3.3H25.7l-11.2,8.4c-0.9,0.6-1.2,1.8-0.9,2.8c0.3,1,1.3,1.7,2.4,1.7h2.7l11.7,20.2H39V86H19.8  c-0.8,0-1.5,0.7-1.5,1.5S19,89,19.8,89H39h22.8h18.5c0.8,0,1.5-0.7,1.5-1.5S81.2,86,80.3,86H61.8V56.3h8.7l10.9-20.2H84  c1.1,0,2-0.7,2.4-1.7C86.7,33.4,86.3,32.3,85.4,31.6z M37,15.4c0-0.9,0.7-1.6,1.6-1.6H62c0.9,0,1.6,0.7,1.6,1.6  c0,0.9-0.7,1.6-1.6,1.6H38.6C37.7,17,37,16.3,37,15.4z M26.7,26.3h46l9.7,6.9H17.6L26.7,26.3z M51.8,46.2v-9.7h11v9.7H51.8z   M38.1,46.2v-9.7h10.8v9.7H38.1z M35.1,36.6v9.7h-7c0,0-0.1,0-0.1,0l-5.6-9.7H35.1z M58.8,86H42V56.3h16.8V86z M68.7,53.3h-6.9H39  h-6.9l-2.4-4.1h41.2L68.7,53.3z M72.6,46.2C72.6,46.2,72.6,46.2,72.6,46.2l-6.7,0v-9.7h12L72.6,46.2z"></path></svg>