<?xml version="1.0" encoding="UTF-8"?>
<svg width="94px" height="36px" viewBox="0 0 94 36" version="1.1" xmlns="http://www.w3.org/2000/svg" xmlns:xlink="http://www.w3.org/1999/xlink">
    <!-- Generator: Sketch 48.2 (47327) - http://www.bohemiancoding.com/sketch -->
    <title>Artboard 4</title>
    <desc>Created with Sketch.</desc>
    <defs></defs>
    <g id="Page-1" stroke="none" stroke-width="1" fill="none" fill-rule="evenodd">
        <g id="Artboard-4" fill="#1A1E44" fill-rule="nonzero">
            <g id="noun_95312-(1)" transform="translate(2.000000, 4.000000)">
                <path d="M24.846,0.338 C20.327,0.338 16.327,3.734 14.26,6.665 L0,27.661 L31.753,27.661 C36.682,27.661 47.818,27.646 47.815,27.646 C51.472,27.646 54.535,25.052 55.263,21.608 L59.261,21.608 C62.92,21.608 65.983,19.012 66.711,15.568 L70.413,15.568 C74.07,15.568 77.135,12.973 77.86,9.528 L82.383,9.528 C86.583,9.528 89.998,6.112 89.998,1.913 L89.998,0.337 L24.846,0.337 L24.846,0.338 Z M82.385,6.378 L51.353,6.378 L51.353,9.528 L74.579,9.528 C73.938,11.212 72.319,12.417 70.415,12.417 L45.685,12.417 L45.685,15.567 L63.427,15.567 C62.786,17.251 61.169,18.457 59.263,18.457 L38.91,18.457 L38.91,21.607 L51.979,21.607 C51.339,23.291 49.722,24.495 47.813,24.495 C47.813,24.495 36.68,24.51 31.752,24.51 L5.948,24.51 L16.85,8.458 C18.153,6.612 21.302,3.489 24.846,3.489 L86.564,3.489 C85.924,5.175 84.294,6.378 82.385,6.378 Z" id="Shape"></path>
            </g>
        </g>
    </g>
</svg>